# xmcd
#
# Track frame offsets: 
#        150
#        20877
#        38860
#        57715
#        75010
#        95758
#        116490
#        138995
#        155694
#
# Disc length: 2316 seconds
#
# Revision: 0
# Processed by: cddbd v1.5.2PL0 Copyright (c) Steve Scherf et al.
# Submitted via: ExactAudioCopyFreeDBPlugin 1.0
#
DISCID=75090a09
DTITLE=泳兒 - 鏡像
DYEAR=1900
DGENRE=Pop
TTITLE0=四不像
TTITLE1=我的情書
TTITLE2=浮沙之路
TTITLE3=南海姑娘(國)
TTITLE4=天空(國)
TTITLE5=特別嘉賓
TTITLE6=城裡的月光(國)
TTITLE7=眼神(國)
TTITLE8=獨一無二
EXTD=
EXTT0=
EXTT1=
EXTT2=
EXTT3=
EXTT4=
EXTT5=
EXTT6=
EXTT7=
EXTT8=
PLAYORDER=
